<?xml version="1.0" standalone="no"?>
<!DOCTYPE svg PUBLIC "-//W3C//DTD SVG 20010904//EN"
 "http://www.w3.org/TR/2001/REC-SVG-20010904/DTD/svg10.dtd">
<svg version="1.0" xmlns="http://www.w3.org/2000/svg"
 width="100.000000pt" height="100.000000pt" viewBox="0 0 100.000000 100.000000"
 preserveAspectRatio="xMidYMid meet">
<metadata>
Created by potrace 1.11, written by Peter Selinger 2001-2013
</metadata>
<g transform="translate(0.000000,100.000000) scale(0.100000,-0.100000)"
fill="#000000" stroke="none">
<path d="M355 977 c-164 -54 -280 -169 -330 -328 -57 -182 -12 -362 125 -499
143 -143 336 -185 530 -115 61 21 127 66 176 117 120 124 167 293 130 459 -62
278 -365 453 -631 366z m279 -52 c31 -10 54 -20 51 -23 -3 -3 -80 -31 -173
-61 l-167 -56 -3 -68 c-2 -37 -1 -67 1 -67 3 0 24 7 47 15 23 8 43 15 44 15 1
0 2 -81 1 -181 0 -99 3 -183 6 -185 3 -2 32 6 65 17 l59 20 0 187 0 186 95 31
c52 17 100 33 105 36 6 4 22 9 36 12 23 6 31 0 63 -45 19 -28 34 -53 32 -55
-2 -2 -68 -26 -147 -53 -78 -27 -145 -54 -149 -60 -7 -12 -5 -108 3 -117 3 -3
22 0 42 7 20 7 38 10 40 8 4 -4 7 -137 6 -294 l-1 -101 -56 -18 c-94 -30 -234
-24 -299 12 -24 14 -36 8 178 79 l147 48 0 67 0 67 -76 -24 c-41 -13 -120 -40
-175 -59 l-99 -34 0 137 c-2 413 -1 535 5 540 3 3 35 13 71 22 80 20 173 18
248 -5z m-454 -431 l0 -307 -31 39 c-119 150 -126 366 -17 526 18 26 36 48 41
48 4 0 7 -138 7 -306z m765 -2 c-4 -109 -36 -196 -102 -275 l-23 -29 0 175 0
175 58 20 c32 11 60 15 63 10 3 -5 5 -39 4 -76z"/>
</g>
</svg>
